<svg xmlns="http://www.w3.org/2000/svg" viewBox="0 0 177.1 173.97"><defs><style>.cls-1,.cls-6{fill:#ec008c;}.cls-1,.cls-2,.cls-3{fill-rule:evenodd;}.cls-2{fill:#523795;}.cls-3,.cls-5{fill:#f58220;}.cls-4{fill:#fff;}</style></defs><g id="Layer_2" data-name="Layer 2"><g id="Layer_1-2" data-name="Layer 1"><polygon class="cls-1" points="26.87 6.06 67.8 13.72 72.34 164.48 43.26 159.74 26.87 6.06"/><polygon class="cls-2" points="110.32 4.23 72.59 2.09 74.48 169.14 109.37 171.28 110.32 4.23"/><polygon class="cls-3" points="155.16 0 116.48 7.82 112.68 166.44 146.62 158.63 155.16 0"/><path class="cls-4" d="M102.16,115.89h0c-.16-3-.34-5.68-.45-7.84-.74-14.39-3-28.84-4.61-43.25a22.11,22.11,0,0,1,7.39-.5c29.88,3.29,21.84,43.58-2.33,51.59M69.55,68.24h0c3.37-4.2,11.35-9.51,19.8-15.43.37,3.32.76,6.64,1.15,9.95C83.56,66,73.32,80.22,74.62,88.49c.94,6,9.54,7.6,9.75.69,0-1.82-2.15-6.23-7.23-3.79C77.54,77.5,83.88,70.47,91,67c2,16.7,4,33.36,4.85,50.21-.36,0-.71.06-1.07.07C67.65,123.29,50.65,91.76,69.55,68.24ZM95.39,39.93h0c0-6-1.46-14,5.29-17.12,3.92-1.82,10.21.47,8.86,5.83-1.17,4.77-6.25,8-9.94,10.58-1.34,1-2.72,1.91-4.16,2.86,0-.74,0-1.46,0-2.17Zm1.26,20.64c-.41-4.1-.76-8.2-1-12.29,13.27-9.75,25.18-20.71,19.61-31-4.59-8.55-16.43-6.43-21.88-.07-6.23,8-5.72,19.63-4.73,29.27-19.27,12.63-43,28-38.57,55.22,4.3,22.28,27.26,27.05,46.08,24.61.1,8-.49,16.33-3.59,23.57-3.68,8.57-14.66,14.31-22.89,7.82-9.26-7.28-3.62-21.56,8.92-20.4,2.21.21,5.38,1.9,6.37,4.53a5.37,5.37,0,0,0-2.81-.76c-2.67,0-4.84,1.85-4.84,4.14s2.17,4.14,4.84,4.14a4.66,4.66,0,0,0,4.78-3.49c2.29-7-4.54-13.05-11.12-12.45-17,1.57-19.51,24.41-5.4,31,7.61,3.57,22.47.43,27.79-11.8,3.5-8,4.28-18.41,4.22-27.64,17-5.2,32.81-20.32,33.06-40.48C135.72,67.55,120.86,51.92,96.65,60.57Z"/><path class="cls-5" d="M151.24,174c-3.72-.21-6.22-2.19-6.07-4.81.19-3.19,4.13-6.2,9-6.86a12.71,12.71,0,0,1,2.47-.11,9.07,9.07,0,0,1,3.53.89l2.33-40.68,1,2c1.29,2.49,6.47,7.78,10.54,11.25,4.34,3.71,2.82,9.69,2.75,9.94l-.63,2.4-.55-2.42c-.7-3-3.89-3.88-7-4.69a21.12,21.12,0,0,1-3.56-1.15H165c-.15-.06-.42-.19-.74-.35L162.65,167c-.18,3.18-4.12,6.2-9,6.86a12.91,12.91,0,0,1-2.48.1"/><path class="cls-6" d="M5.93,169.61c-3.25.31-5.68-1.15-5.91-3.56-.26-2.75,2.59-5.81,6.49-7a9.69,9.69,0,0,1,2-.39,8.37,8.37,0,0,1,2.06.05L8.3,134.85l21.58-7.79,2.77,29.51c.26,2.75-2.59,5.81-6.49,7a11.59,11.59,0,0,1-2,.39c-3.25.31-5.68-1.16-5.9-3.57-.27-2.75,2.58-5.81,6.48-7a9.69,9.69,0,0,1,2-.39,7.89,7.89,0,0,1,2,.05L27,134.58l-14.77,5.33,2.19,22.33c.27,2.75-2.58,5.81-6.48,7a10,10,0,0,1-2,.39"/></g></g></svg>