<svg xmlns="http://www.w3.org/2000/svg" viewBox="0 0 577.31 577.31">
  <defs>
    <style>
      .a {
        fill: #e6e1f2;
      }
    </style>
  </defs>
  <path class="a" d="M240.18,384.92c-1.58-4.21-2.89-8.68-4.21-12.89L596.3,11.71c4.2,1.31,8.67,2.63,12.88,4.2ZM554.21,2.5C549.21,1.71,544,1.18,539,.66L224.66,315c.52,5,1.05,10.25,1.84,15.25ZM676.78,50.89c-3.42-2.36-6.84-4.73-10.26-6.84L268.05,442.52c2.11,3.42,4.48,6.84,6.84,10.26Zm-43.4-25c-4-1.84-7.89-3.68-11.84-5.26L244.91,397.28c1.58,4,3.42,7.89,5.26,11.84Zm22.35,11.83c-3.68-2.1-7.36-4.2-11-6L255.43,421c1.84,3.68,3.95,7.37,6.05,11.05ZM396.14,23.54a313,313,0,0,0-36,18.94l-93.63,93.63a247.5,247.5,0,0,0-18.94,36ZM505.82-.66,223.34,281.82c0,5.79,0,11.31.27,17.09l299-299.3C517.13-.66,511.34-.66,505.82-.66ZM800.66,286.55,510.55,576.66c5.79,0,11.84,0,17.63-.53l272-271.95C800.39,298.39,800.66,292.34,800.66,286.55ZM696.24,65.89c-3.16-2.64-6.31-5.27-9.47-7.63L282.26,462.77c2.36,3.16,5,6.31,7.63,9.47ZM487.67.39c-6.57.53-12.88,1.32-19.46,2.37L226.76,244.21c-1,6.58-1.84,12.88-2.37,19.46Zm-40.5,6.32c-7.89,1.84-15.78,3.94-23.67,6.58L237,199.5c-2.37,7.89-4.73,15.52-6.57,23.67ZM582.62,8c-4.74-1-9.21-2.1-13.94-3.15L228.87,344.68c1,4.73,2.1,9.2,3.15,13.94ZM795.39,343.1c1.32-6.84,2.37-13.41,3.16-20.25l-251.7,251.7c6.84-.79,13.68-1.84,20.25-3.16ZM800.13,270c-.26-5.26-.79-10.52-1.31-15.78L478.2,574.55c5.26.53,10.52,1.06,15.78,1.32Zm-3.68-30.77c-.79-4.73-1.84-9.47-2.9-14.2L448.75,569.55c4.73,1.06,9.46,2.11,14.2,2.9ZM714.12,81.93c-2.89-2.89-5.78-5.52-8.67-8.42L297.78,481.18c2.63,2.89,5.52,5.79,8.41,8.68Zm16.84,394a289.5,289.5,0,0,0,36.56-53.65L646.27,543.52A289.5,289.5,0,0,0,699.92,507Zm59.18-264.59c-1.32-4.47-2.64-8.68-3.95-13.15l-364,364c4.47,1.31,8.68,2.63,13.15,3.95Zm-8.42,179.9c3.16-8.41,6-16.83,8.42-25.51L589.72,566.14c8.68-2.37,17.1-5.26,25.51-8.42ZM746,118.75c-2.37-3.16-4.74-6.57-7.36-9.73L333,514.32c3.16,2.63,6.57,5,9.73,7.37Zm35.77,66.8c-1.58-4.2-3.16-8.15-5-12.09L397.2,553c3.94,1.84,8.15,3.42,12.09,5Zm-51-86c-2.64-3.16-5.27-6-8.16-8.94L314.61,498.54c2.89,2.89,6.05,5.52,8.94,8.16Zm28.66,39.72c-2.1-3.42-4.2-7.11-6.57-10.52l-400,400c3.41,2.37,6.84,4.47,10.52,6.57Zm12.1,22.35c-1.84-3.68-3.68-7.62-5.78-11.31L374.31,541.68c3.69,2.1,7.37,3.94,11.31,5.78Z" transform="translate(-223.34 0.66)"/>
</svg>
