<svg xmlns="http://www.w3.org/2000/svg" viewBox="0 0 555.09 379.92">
  <defs>
    <style>
      .a {
        fill: #523795;
      }

      .a, .b, .c, .g {
        fill-rule: evenodd;
      }

      .b, .f {
        fill: #ec008c;
      }

      .c, .e {
        fill: #f58220;
      }

      .d, .g {
        fill: #fff;
      }
    </style>
  </defs>
  <g>
    <path class="a" d="M684,257.72A127.79,127.79,0,1,0,811.78,385.5,127.79,127.79,0,0,0,684,257.72M684,199c103,0,186.47,83.5,186.47,186.46S787,572,684,572,497.53,488.47,497.53,385.5,581,199,684,199Z" transform="translate(-406.46 -195.54)"/>
    <polygon class="b" points="214.76 100.28 255.69 107.94 260.23 258.7 231.15 253.96 214.76 100.28"/>
    <polygon class="a" points="298.21 98.45 260.48 96.31 262.37 263.36 297.26 265.5 298.21 98.45"/>
    <polygon class="c" points="343.05 94.22 304.37 102.04 300.57 260.66 334.51 252.85 343.05 94.22"/>
    <path class="d" d="M696.51,405.65h0c-.16-3-.34-5.68-.45-7.84-.74-14.39-3-28.84-4.61-43.25a22.36,22.36,0,0,1,7.39-.5c29.88,3.29,21.84,43.58-2.33,51.59M663.9,358h0c3.37-4.2,11.35-9.51,19.8-15.43.37,3.32.76,6.64,1.15,9.95-6.94,3.26-17.18,17.46-15.88,25.73.94,6,9.54,7.6,9.75.69,0-1.82-2.15-6.23-7.23-3.79.4-7.89,6.74-14.92,13.86-18.4,2,16.7,4,33.36,4.85,50.21-.36,0-.71.06-1.07.07C662,413.05,645,381.52,663.9,358Zm25.84-28.31h0c0-6-1.46-14,5.29-17.12,3.92-1.82,10.21.47,8.86,5.83-1.17,4.77-6.25,8-9.94,10.58q-2,1.43-4.16,2.86C689.77,331.1,689.75,330.38,689.74,329.67ZM691,350.33c-.41-4.1-.76-8.2-1-12.29,13.27-9.75,25.18-20.71,19.61-31-4.59-8.55-16.43-6.43-21.88-.07-6.23,8-5.72,19.63-4.73,29.27-19.27,12.63-43,28-38.57,55.22,4.3,22.28,27.26,27.05,46.08,24.61.1,8-.49,16.33-3.59,23.57-3.68,8.57-14.66,14.31-22.89,7.82-9.26-7.28-3.62-21.56,8.92-20.4,2.21.21,5.38,1.9,6.37,4.53a5.41,5.41,0,0,0-2.81-.76c-2.67,0-4.84,1.85-4.84,4.14s2.17,4.14,4.84,4.14a4.66,4.66,0,0,0,4.78-3.49c2.29-7-4.54-13.05-11.12-12.45-17,1.57-19.51,24.41-5.4,31,7.61,3.57,22.47.43,27.79-11.8,3.5-8,4.28-18.41,4.22-27.64,17-5.2,32.81-20.32,33.06-40.48C730.07,357.31,715.21,341.68,691,350.33Z" transform="translate(-406.46 -195.54)"/>
    <path class="e" d="M745.59,463.71c-3.72-.21-6.22-2.19-6.07-4.81.19-3.19,4.13-6.2,9-6.86a13,13,0,0,1,2.47-.11,9,9,0,0,1,3.53.89l2.33-40.68,1,2c1.29,2.49,6.47,7.78,10.54,11.25,4.34,3.71,2.82,9.69,2.75,9.94l-.63,2.4-.55-2.42c-.7-3-3.89-3.88-7-4.69a21.58,21.58,0,0,1-3.56-1.15l-.06,0c-.15-.06-.42-.19-.74-.35L757,456.75c-.18,3.18-4.12,6.2-9,6.86a13,13,0,0,1-2.48.1" transform="translate(-406.46 -195.54)"/>
    <path class="f" d="M600.28,459.37c-3.25.31-5.68-1.15-5.91-3.56-.26-2.75,2.59-5.81,6.49-7a10.19,10.19,0,0,1,2-.39,8.25,8.25,0,0,1,2.06.05l-2.27-23.86,21.58-7.79L627,446.33c.26,2.75-2.59,5.81-6.49,7a10.93,10.93,0,0,1-2,.39c-3.25.31-5.68-1.16-5.9-3.57-.27-2.75,2.58-5.81,6.48-7a10.29,10.29,0,0,1,2-.39,8.18,8.18,0,0,1,2,.05l-1.76-18.47-14.77,5.33L608.75,452c.27,2.75-2.58,5.81-6.48,7a10.29,10.29,0,0,1-2,.39" transform="translate(-406.46 -195.54)"/>
    <path class="a" d="M684,254.8A130.71,130.71,0,1,1,553.3,385.5,130.72,130.72,0,0,1,684,254.8M684,201c101.87,0,184.49,82.62,184.49,184.49S785.87,570,684,570,499.51,487.38,499.51,385.5,582.13,201,684,201Zm0,59.26A125.23,125.23,0,1,0,809.23,385.5,125.25,125.25,0,0,0,684,260.27Zm0-64.73c104.89,0,190,85.07,190,190s-85.07,190-190,190-190-85.07-190-190S579.11,195.54,684,195.54Z" transform="translate(-406.46 -195.54)"/>
    <path class="d" d="M857.9,392.44l-1.15,9.31q-10.75.71-18.46.92l4.94,1.43c1.92.56,3.8,1.15,5.61,1.75l7.12,2.33-1.16,9.51-32.93-.29.89-7.3,22.57.77-21.76-7.29.61-5,23-2L825,391.93l.85-7Zm-22.48-21.16c4.67-1.78,9.14-3.24,13.42-4.41v-.09c-4.57,0-9.27-.12-14.12-.52Zm-9.79,11.87-1.07-7.65,5.23-2-1.09-7.76-5.59-.53-1.05-7.5,33.61,4,1.15,8.25Zm22-55.86,2.29,8q-6,4.6-9.35,6.86l0,.1q4.11.12,11.55.82l2.35,8.19-19.63-3.5-14.24,4.09-2.07-7.23,14.24-4.09Zm-24-1.72q5.91-4.6,11.54-8.15l0-.08c-4.35,1.37-8.9,2.59-13.64,3.63Zm-5.89,14.21-3.26-7,4.42-3.44-3.31-7.1-5.5,1.12-3.2-6.86,33.32-6,3.52,7.55Zm8.78-53.36,4,6.23-21.09,13.7,3.21,4.93-6.35,4.12-7.25-11.16Zm-10.6-12.82,4.68,5.78L795.19,300l-4.68-5.78Zm-25.8-25.23,5.75,4.82L791,273.71l2.07-2.87,9.86-11.76,5.69,4.78-21,25.06-5.84-4.9,4.86-20.17-2.46,3.25-9.33,11.11-5.69-4.77Zm-37.41,1.56q1.71-7.29,3.85-13.59l-.08,0q-3.78,5.72-8.32,11.41Zm4.37,14.75-6.94-3.38,1.27-5.46-7-3.43-3.57,4.33-6.8-3.31,22.14-25.61,7.48,3.65ZM728.79,218.4l7.17,1.92-6.51,24.3,5.68,1.52-2,7.31L720.32,250Zm-19.85,17.37q-.77-7.44-.79-14.1h-.09q-1.71,6.63-4.15,13.5Zm8.93,12.53-7.67-.94-.57-5.58-7.78-.95-2,5.26-7.51-.92L705,213.75l8.27,1Zm-47.93-36,7.43-.13.26,15.39h.12l6.74-15.51,7.8-.14L685,228.76l7.56,15.88-8.16.14-6.56-13.49h-.12l.24,13.6-7.43.13ZM643,239q-3.5-6.63-6-12.78l-.09,0q.9,6.78,1.21,14.07Zm13,8.27-7.45,2-2.62-5-7.57,2,.15,5.61-7.31,2L631,220.08l8.05-2.15Zm-58.34-12.57,6.68-3.26L611,245.3l.1-.05-.44-16.91,7-3.42.5,18.35,13.56,11.2-7.34,3.58-11.64-9.46-.11,0,6,12.23-6.67,3.26Zm-15.54,10.51,6.09-4.26,18.77,26.8L600.82,272ZM563.53,260.5l13.57-11.39,4.8,5.73L578,258.13l16.23,19.34-5.77,4.84L572.22,263l-3.89,3.25Zm-14.69,16.69,9.86-11.34,5.25,4.57-5,5.73,4.55,4,4.32-5,5.13,4.45-4.33,5,4.5,3.9,5-5.76,5.27,4.58-9.89,11.37ZM535.19,297.1l8.18-12.6,5.84,3.8-4.14,6.37,5.06,3.28,3.59-5.53,5.69,3.7-3.59,5.53,5,3.24,4.16-6.41,5.86,3.8-8.21,12.64Zm8.38,13.55,5,2.31q5.78,2.7,7.77,7a10.4,10.4,0,0,1-.26,9.17,10.76,10.76,0,0,1-8,6.47c-3.63.71-8-.12-13-2.47s-8.47-5.15-10.19-8.33-1.69-6.68.07-10.45q3-6.35,11.07-6l-.35,7.66a9.8,9.8,0,0,0-2.77.52,2.87,2.87,0,0,0-1.54,1.58,3.29,3.29,0,0,0,.79,3.9,22.72,22.72,0,0,0,6.55,4.1c3,1.38,5.31,2.08,7,2.08a3.55,3.55,0,0,0,3.54-2.1q1.57-3.37-3.2-5.73l-1.46,3.13-5.75-2.68Zm-31.42,49.1,1.81-7.27,20.59-4.59-3.49-.59-14.88-3.72,1.79-7.2,31.75,7.91-1.84,7.39-20.27,4.48,4,.79,14.08,3.51-1.8,7.21Zm20,20.53c-4.9.94-9.57,1.61-14,2v.09q6.76,1.14,13.81,3Zm11.7-10-.27,7.72-5.5,1.05-.28,7.84,5.42,1.49L542.9,396l-32.39-9.81.29-8.33Zm1.54,43-7.57.93a12.37,12.37,0,0,0,1.32-6.14,3.08,3.08,0,0,0-1-2.1,2.69,2.69,0,0,0-2.12-.55,3,3,0,0,0-1.75.87,12.66,12.66,0,0,0-1.8,2.48,25.1,25.1,0,0,1-4.75,6.2,9.73,9.73,0,0,1-5.4,2.4,9.15,9.15,0,0,1-10.68-8.34,15.2,15.2,0,0,1,.59-6.34l7.27-.89a11.88,11.88,0,0,0-1.15,5.54,3.34,3.34,0,0,0,.93,2.08,2.3,2.3,0,0,0,1.94.56q2-.26,4.14-4.23a22.92,22.92,0,0,1,3.7-5,9.77,9.77,0,0,1,6.07-3,9.19,9.19,0,0,1,7.32,2.08,10.58,10.58,0,0,1,3.69,7.13A14.26,14.26,0,0,1,545.34,413.34Z" transform="translate(-406.46 -195.54)"/>
    <path class="d" d="M664.92,541.88l.25.14.25.16.11.08.05,0a.84.84,0,0,0,.16.07,13.16,13.16,0,0,1-.81,1.09,14.16,14.16,0,0,1-1,1.21,13.34,13.34,0,0,1-1.19,1.09,5.82,5.82,0,0,1-1.18.74,1.78,1.78,0,0,1-1,.17,4.77,4.77,0,0,1,.53-1.85,10.82,10.82,0,0,1,1.16-1.86,17.33,17.33,0,0,1,1.49-1.67,18.59,18.59,0,0,1,1.42-1.28,7.22,7.22,0,0,1,1-.7l.06,0h0l-1.29,2.3,0,.1a.19.19,0,0,0,.08.2m4.33-1.32a9,9,0,0,0,.49-1.49,6.25,6.25,0,0,0,.16-1.57.21.21,0,0,0,0-.14l-.1-.13-.77-.94c-.25-.31-.51-.61-.78-.91l-.07,0-.09.08-.52.86c0,.09-.08.14-.09.14s-.06,0-.14-.14-.26-.22-.45-.36l-.57-.42a4.37,4.37,0,0,0-.49-.32.27.27,0,0,0-.13-.07.15.15,0,0,0-.12,0,8.21,8.21,0,0,0-2.14,1,14.41,14.41,0,0,0-2.06,1.69,20,20,0,0,0-1.82,2.09,15,15,0,0,0-1.39,2.22,9.27,9.27,0,0,0-.81,2.1,3.71,3.71,0,0,0,0,1.72.41.41,0,0,0,0,.15.7.7,0,0,0,.14.17l2.31,2a1.54,1.54,0,0,0,.81.43,1.81,1.81,0,0,0,1-.14,8.16,8.16,0,0,0,1.56-.79,15.84,15.84,0,0,0,1.88-1.37,17.44,17.44,0,0,0,1.88-1.87,12.78,12.78,0,0,0,1.57-2.3l4.85-1.87-.54-.63Zm0-9.42a.45.45,0,0,0,.17-.17q0-.08-.12-.27L667.42,528a1,1,0,0,0-.22-.25c-.06,0-.14,0-.25.15L656.57,538.6s-.07.08-.11.08,0-.06,0-.14l2.2-8.72a.9.9,0,0,0,0-.22.54.54,0,0,0-.12-.22l-3.45-4.22H655a.06.06,0,0,0-.07,0s0,0,0,.08L652.64,541c-.49.65-1,1.29-1.43,1.9l-1.27,1.69c-.39.51-.71.94-1,1.27l-.51.67a1.64,1.64,0,0,0-.29.48.31.31,0,0,0,.08.33l2.38,3.1q.14.16.24.12a.44.44,0,0,0,.18-.18c.06-.1.12-.18.17-.27l5.19-8.68Zm-35.59,20.24a2.68,2.68,0,0,1-1.27-.57,4.45,4.45,0,0,1-1-1.1,9.08,9.08,0,0,1-.71-1.39c-.21-.5-.4-1-.56-1.48s-.34-.92-.5-1.32a1.31,1.31,0,0,1-.1-.84,1,1,0,0,1,.45-.55,3.22,3.22,0,0,1,.89-.38l.9,1.56c.32.55.62,1.1.9,1.66a15.34,15.34,0,0,1,.73,1.64,7.2,7.2,0,0,1,.37,1.51A2.59,2.59,0,0,1,633.67,551.38Zm.27-12.15a4.8,4.8,0,0,1,.68-1.11,11.81,11.81,0,0,1,1.2-1.33,14.7,14.7,0,0,1,1.47-1.27,8.85,8.85,0,0,1,1.52-.94,2.89,2.89,0,0,1,1.33-.32l-1.55,1.79,0,0a.19.19,0,0,0,0,.11.2.2,0,0,0,.08.15l.29.26.22.2a7.32,7.32,0,0,1-1.3,1.74,5.4,5.4,0,0,1-1.65,1.13,3.33,3.33,0,0,1-1.84.23l-.23-.08a.23.23,0,0,1-.13-.1.18.18,0,0,1-.08-.18A2.44,2.44,0,0,1,633.94,539.23Zm0,2.11a6.06,6.06,0,0,0,.57.46,1.55,1.55,0,0,0,.51.23,1.58,1.58,0,0,0,.62,0,6.49,6.49,0,0,0,2-.54,8.7,8.7,0,0,0,1.79-1.1,10.63,10.63,0,0,0,2.67-3.18l5.25-1.12-.4-.7-4,.11a6.31,6.31,0,0,0,.22-1.59,3.46,3.46,0,0,0-.13-1.1l-.5-.23.87-.23-2.58-2.59-.13-.07-.16,0a8.15,8.15,0,0,0-1.9.52,15.4,15.4,0,0,0-2.18,1,18.81,18.81,0,0,0-2.14,1.46,13.06,13.06,0,0,0-1.83,1.71,7.83,7.83,0,0,0-1.23,1.85,3.65,3.65,0,0,0-.33,1.86,1.48,1.48,0,0,0,.25.44c.14.17.28.35.44.53s.27.31.35.42l-1,.34a2.3,2.3,0,0,0-.66.31,1.47,1.47,0,0,0-.5.55,1.08,1.08,0,0,0,0,.8,2.7,2.7,0,0,0,.21.42c.09.18.24.41.41.69l-.89.24c-.35.1-.71.21-1.08.34a8.36,8.36,0,0,0-1.05.47,3.22,3.22,0,0,0-.8.6,1.16,1.16,0,0,0-.33.76,4.24,4.24,0,0,0,.06.66,7.2,7.2,0,0,0,.22.81c.19.57.41,1.17.63,1.81s.5,1.23.78,1.82a8.84,8.84,0,0,0,.95,1.57,3.64,3.64,0,0,0,1.18,1,2,2,0,0,0,1.43.21l1.11-.22c.47-.1,1-.23,1.53-.37a16.9,16.9,0,0,0,1.62-.49,8.62,8.62,0,0,0,1.35-.6,1.81,1.81,0,0,0,.76-.7,2.76,2.76,0,0,0,0-1.79,9.72,9.72,0,0,0-1-2.33,26.27,26.27,0,0,0-1.8-2.69c-.7-.94-1.48-1.89-2.33-2.85a.21.21,0,0,1,0-.27.78.78,0,0,1,.26-.22Zm-13.3-10.59-.14,0s0,0,0-.09l2-1.9,2-1.91a.31.31,0,0,0,.08-.1.26.26,0,0,0,0-.11l-1.45-3s0-.06-.06-.1-.08,0-.15,0L620.55,526c-.81.79-1.59,1.59-2.35,2.38s-1.49,1.54-2.16,2.27-1.29,1.42-1.83,2.06c0,0,0,0,0,.07a.2.2,0,0,0,.05.09l.72,1.33c.25.44.48.88.71,1.32,0,0,0,0,0,0l.05,0,9.84-6.21s.07-.05.06,0l-.11.13q-1.41,1.41-2.76,2.85c-.9,1-1.78,1.93-2.63,2.94a.43.43,0,0,0-.12.19.57.57,0,0,0,.11.2l1.31,2.47.05.09.08,0,12.2-6-1-.43-8.28,3.45-.06,0s0,0,0,0c.91-.92,1.85-1.84,2.82-2.75s2-1.83,3-2.74l.21-.24a.19.19,0,0,0,0-.23l-.73-1.49-.72-1.48a.69.69,0,0,0-.07-.13s-.06,0-.11,0Zm-1.78-12.68,1.08,2.73c0,.13.08.2.12.21s.09,0,.21-.11l3.59-2.54a1.88,1.88,0,0,0,.31-.26c.06-.08.05-.2,0-.37L623,515a1.48,1.48,0,0,0-.11-.27c0-.07-.1-.07-.19,0l-3.8,2.92c-.1.08-.16.15-.16.2A1,1,0,0,0,618.86,518.07Zm.17,7.82-8.26,2.79a1.58,1.58,0,0,1-.26.09s0,0,.11-.13c1-.82,2-1.65,3-2.5s2.07-1.69,3.11-2.53a1,1,0,0,0,.17-.13s0-.1,0-.19l-1.22-3a1.79,1.79,0,0,0-.09-.21s-.08,0-.17.07q-2.34,2-4.7,4.09t-4.54,4.29a.36.36,0,0,0-.13.23,1,1,0,0,0,.09.25l1,2.34a.5.5,0,0,0,.1.21s.1,0,.2,0l12.5-5.15Zm-21.93-4a.71.71,0,0,0-.22,0s0,0,.15-.11l1.65-1.24c.57-.44,1.14-.86,1.69-1.29l1.57-1.18,1.26-1,.77-.56.2-.16a.28.28,0,0,0,.08-.12.63.63,0,0,0,0-.23l-.94-2.92a.55.55,0,0,0-.1-.24s-.09,0-.2.09l-2.61,2q-1.32,1-2.58,2c-.84.66-1.64,1.3-2.39,1.92s-1.44,1.2-2.06,1.75a.77.77,0,0,0-.2.23.28.28,0,0,0,0,.18c0,.07.06.16.12.28l.73,2.14a3.52,3.52,0,0,0,.16.33s.08,0,.16,0l5.72-.92c-.51.4-.94.74-1.29,1l-1,.77-.83.69-.93.79-1.27,1.08-4.93,1.67a.79.79,0,0,0-.53.45,1,1,0,0,0,0,.73l.75,4.41c0,.17.11.25.25.25a1,1,0,0,0,.57-.25L600,527l12.54-4.14-.87-.54-4.32,1.11L603,524.59h0s0,0,0-.05c1-.77,2.1-1.56,3.21-2.35s2.23-1.57,3.35-2.33l.15-.11s0-.07,0-.16l-1-3.14a.71.71,0,0,0-.08-.2s-.07,0-.16.09l-7.09,5.39Zm6.91-15.1.25-.1s0-.12,0-.26l-.78-3.34a.61.61,0,0,0,0-.15s-.06,0-.15,0c-.58.25-1.31.6-2.2,1.07s-1.89,1-3,1.65-2.24,1.3-3.44,2-2.4,1.47-3.59,2.23-2.33,1.5-3.41,2.23-2,1.41-2.91,2.05c-.11.09-.17.17-.17.24a.8.8,0,0,0,.07.32l.65,2.42a1.42,1.42,0,0,0,.06.21c0,.05.07.07.16.05l13.18-3.16-.85-.64-8.23,1.42a1.53,1.53,0,0,1-.51.06s0-.09.27-.24l3.52-2.17c1.2-.74,2.43-1.47,3.66-2.19s2.48-1.4,3.72-2S602.78,507.28,604,506.79Zm-16.83-5.15-3.59.77c-1.23.26-2.47.55-3.73.83-.23.05-.3.05-.2,0a4,4,0,0,1,.58-.28l1-.43,1.17-.47.93-.38a.48.48,0,0,0,.14-.06.12.12,0,0,0,0-.13l-.44-3.46a1.41,1.41,0,0,0,0-.33c0-.05-.11,0-.25.05q-5.43,2.52-10.65,5.3t-10.35,5.81a1.48,1.48,0,0,0-.3.21.35.35,0,0,0-.08.22,1.36,1.36,0,0,0,0,.33l.21,2.36c0,.17,0,.27.08.28s.12,0,.26-.11l3.75-2c1.12-.58,2.15-1.12,3.08-1.59s1.79-.93,2.59-1.34l2.31-1.15L576,505l6.38-.92c.12,0,.17,0,.18,0s0,.06-.11.1l-.24.15a10.42,10.42,0,0,1-1.27.75,17.82,17.82,0,0,1-1.68.76,16.62,16.62,0,0,1-1.88.64,11.87,11.87,0,0,1-1.86.39l-1.56-.2a.17.17,0,0,0-.21.05.59.59,0,0,0,0,.37l.27,1.76c0,.16,0,.31.05.41a.38.38,0,0,0,.13.24.81.81,0,0,0,.37.11,7.09,7.09,0,0,0,.92.05,8.28,8.28,0,0,0,1.39-.11l13.45-.39-.91-.85-7.09-.14a5.38,5.38,0,0,0,.73-.24c.32-.13.68-.29,1.09-.49s.83-.4,1.27-.64.85-.48,1.24-.73a12.48,12.48,0,0,0,1-.73c.07,0,.12-.1.12-.14a.71.71,0,0,0,0-.21l-.29-3.13a1.41,1.41,0,0,0,0-.22S587.3,501.61,587.18,501.64Zm-6.37-10.84.24,2.93a.4.4,0,0,0,0,.23.47.47,0,0,0,.24,0l4.18-1.37a2.35,2.35,0,0,0,.37-.16c.08-.06.11-.17.09-.36l-.26-3a1,1,0,0,0,0-.28c0-.08-.07-.1-.17-.08L581,490.39a.37.37,0,0,0-.21.13A.83.83,0,0,0,580.81,490.8Zm-2.13,7.52-8.71.26a.86.86,0,0,1-.27,0s0,0,.14-.09c1.16-.51,2.35-1,3.57-1.52s2.47-1,3.72-1.51l.2-.08s.06-.09.06-.18L577.1,492a.82.82,0,0,0,0-.22s-.08,0-.18,0c-1.88.8-3.78,1.65-5.69,2.53s-3.79,1.81-5.6,2.78a.37.37,0,0,0-.19.18.79.79,0,0,0,0,.26l.31,2.54a.81.81,0,0,0,0,.24s.09.06.19,0l13.47-1.27Zm-.12-12.53.3-.05c.06,0,.08-.11.06-.26l0-3.22a.92.92,0,0,0,0-.33s-.11-.05-.27,0c-.33.06-.78.16-1.34.31s-1.19.31-1.87.51l-2.1.61-2,.59c-.09,0-.14,0-.16,0s-.05,0-.1-.11l-3.56-3.67q-.06-.07-.06,0a1.56,1.56,0,0,1,0,.2v1.77a1.18,1.18,0,0,0,0,.25,1.45,1.45,0,0,0,.16.21l1.51,1.8q.12.13.06.18l-.24.07c-1.43.46-2.75.9-4,1.34s-2.4.86-3.51,1.3-2.19.88-3.25,1.33a.54.54,0,0,0-.23.16.35.35,0,0,0-.06.21v.31l.11,2.3a1.64,1.64,0,0,0,0,.27c0,.05,0,.07.08.07h.29l13.91.59-.66-.78-9.46-1.17-.15,0s0,0,.08-.06c.92-.3,1.74-.57,2.48-.83l2.12-.7c.69-.22,1.39-.45,2.13-.67s1.56-.47,2.46-.71c.13,0,.21-.05.26,0a1.06,1.06,0,0,1,.19.21l2.43,2.61h0l.05,0s0,0,0,0v-.2l.16-2.49a.28.28,0,0,0,0-.16l-.1-.11-.53-.46,1.13-.3,1.36-.35,1.29-.32Q578.21,485.85,578.56,485.79Zm-5.12-6.07a1.25,1.25,0,0,0,.27,0s.07-.1.08-.24L574,476a.43.43,0,0,0,0-.15s-.06,0-.14,0c-.63.08-1.43.21-2.42.42s-2.09.45-3.32.76-2.51.63-3.87,1-2.71.75-4.06,1.15-2.66.81-3.89,1.21-2.36.8-3.36,1.17q-.21.07-.24.18a1,1,0,0,0,0,.33l0,2.51a1.44,1.44,0,0,0,0,.21c0,.05,0,.09.14.1l13.54.6-.64-.85-8.31-.91a1.7,1.7,0,0,1-.5-.08s.07-.08.33-.16l4-1.12c1.36-.38,2.74-.74,4.12-1.09s2.77-.66,4.14-.93S572.13,479.85,573.44,479.72Zm-25.9-10.09a2.19,2.19,0,0,1-.38-.08q-.09,0,.15-.09l2.36-.37,2.12-.35,1.7-.27,1.07-.19.26,0a.19.19,0,0,0,.13-.07.63.63,0,0,0,0-.25l.49-3a.68.68,0,0,0,0-.24s-.07,0-.21,0c-1.06.17-2.13.34-3.22.53l-3.19.59c-1.06.21-2.06.42-3,.63s-1.83.41-2.64.61a.87.87,0,0,0-.27.12.31.31,0,0,0-.09.18c0,.08,0,.19,0,.32l-.29,2.23a2.17,2.17,0,0,0,0,.34s0,.08.11.09l.37,0,8.12,1.12-2.38.5c-.77.17-1.55.36-2.33.57-.11,0-.19.07-.21.12s0,.14-.07.26l-.31,2.63c0,.11,0,.17,0,.19s.07,0,.19,0l13.33,2-.54-.91-8.6-1.85L550,475s0,0,.08,0c1.27-.21,2.59-.41,3.94-.62l4-.57.17,0a.19.19,0,0,0,.06-.16l.52-3.27a.73.73,0,0,0,0-.18s-.08,0-.2,0l-4.69.81Zm13.94-4.54.5-3.88v0l0,0h0l0,0h0l0,0c-.7-.23-1.54-.46-2.51-.71s-2-.5-3.14-.75-2.28-.5-3.45-.73-2.29-.45-3.4-.64-2.11-.36-3-.49-1.7-.21-2.33-.26v0h0l11.92-4.71a1.36,1.36,0,0,0,.29-.11c.06,0,.08-.11.08-.22,0-.51.08-1,.13-1.56s.11-1.06.16-1.57a.4.4,0,0,0,0-.2c0-.05-.07-.07-.14-.05l-24.26.13a.36.36,0,0,0-.2.06.34.34,0,0,0-.08.16,2.32,2.32,0,0,1-.06.27l-1.21,4.08c0,.05,0,.09,0,.1s0,0,.1,0c1.1-.13,2.3-.25,3.61-.38l4.11-.39c1.43-.12,2.89-.23,4.35-.33s2.89-.19,4.3-.26l-10.7,3.62c-.05,0-.08,0-.09,0a.31.31,0,0,0,0,.09l-.85,2.5c0,.06,0,.09,0,.1l.16,0c1.87,0,3.74.12,5.61.32s3.71.42,5.51.69,3.5.55,5.11.82c0,0,0,0,0,0l0,0c-1.34,0-2.68.05-4,.11s-2.62.12-3.87.22-2.43.21-3.54.35-2.11.31-3,.5c-.1,0-.16.06-.18.11s-.06.11-.12.2L535.85,465a.11.11,0,0,0,0,.11s.06.05.12,0c1-.19,2.16-.36,3.5-.51s2.81-.26,4.42-.33,3.36-.1,5.21-.07,3.79.13,5.82.3,4.11.42,6.26.76c.11,0,.18.05.22,0S561.47,465.21,561.48,465.09Z" transform="translate(-406.46 -195.54)"/>
    <path class="d" d="M803.12,492.92c0-.06,0-.09,0-.07s0,0,.08.12l.57,1q.27.46.54.9a.74.74,0,0,0,.18.2.4.4,0,0,0,.19,0L805,495l2.5-.42c.06,0,.1,0,.1,0s0-.06,0-.12l-2-13.43-.71.79.74,8.72a1.09,1.09,0,0,1,0,.24s0,0,0-.09c-.57-1.13-1.14-2.29-1.73-3.49s-1.14-2.39-1.68-3.57l-.1-.3a.09.09,0,0,0-.11-.06l-.3,0-2.81.38-.34,0c-.06,0-.1,0-.09.08a1.23,1.23,0,0,0,.11.28l.18.37a2.15,2.15,0,0,0,.17.34c.06.12.08.18.07.19a.57.57,0,0,1-.22,0l-1.2-.19,0,0,0,0a7.52,7.52,0,0,0-.83,2.43,11.38,11.38,0,0,0-.13,2.68,16.35,16.35,0,0,0,.39,2.72,20.78,20.78,0,0,0,.75,2.52,16.68,16.68,0,0,0,.92,2.09,8.25,8.25,0,0,0,.93,1.43c.29.34.54.52.75.53h3a.34.34,0,0,0,.23-.11.5.5,0,0,0,.09-.25Zm-2.7-4.95c0-.06,0-.09,0-.08s0,.05.07.13c.29.56.58,1.1.87,1.64s.59,1.07.89,1.62a.13.13,0,0,0,0,.06s0,0,0,0l-.24,5.36c0,.1,0,.14,0,.14s0,0-.1-.1a10.2,10.2,0,0,1-.81-1.78,13.59,13.59,0,0,1-.56-2.2,17.11,17.11,0,0,1-.26-2.4A15,15,0,0,1,800.42,488Zm-10.09,15.26a2.48,2.48,0,0,1,0,.3,1.12,1.12,0,0,1-.1-.23l-2-4.94c0-.11-.07-.16-.12-.17a1.06,1.06,0,0,0-.24,0l-3,.21h-.25s-.07,0-.07.06a.53.53,0,0,0,0,.22l1.48,8.72a.8.8,0,0,1,0,.16s0,0-.06-.09-.23-.55-.39-1-.36-.88-.56-1.38l-.57-1.42c-.17-.45-.32-.83-.42-1.13s-.13-.29-.21-.3a.49.49,0,0,0-.2,0l-3,.21a.53.53,0,0,0-.28.06s0,.12.07.3c.39,1,.81,2,1.24,3s.85,2,1.28,2.95.86,1.89,1.28,2.76.81,1.67,1.19,2.4a1.09,1.09,0,0,0,.13.23.14.14,0,0,0,.12.06l.26,0,2.55-.26a.74.74,0,0,0,.22,0s0-.07,0-.18l-2.27-10.8a.33.33,0,0,1,0-.1s0,0,0,.05c.41.87.82,1.7,1.23,2.52s.81,1.6,1.2,2.33.74,1.43,1.08,2.06a.69.69,0,0,0,.18.27.23.23,0,0,0,.2.06l.34-.06,1.84-.15.33,0a.08.08,0,0,0,.07-.1c0-.05,0-.15,0-.29l-2.05-10.21-.12-.6.3.63c.46,1.06.94,2.11,1.43,3.17s1,2.09,1.52,3.11a.66.66,0,0,0,.16.27.19.19,0,0,0,.17.09,1.12,1.12,0,0,0,.31,0l2.26-.25.35,0c.06,0,.08,0,.08-.11s0-.17,0-.34l-1-13.22-.77.73.11,8.41a3.17,3.17,0,0,1,0,.5c0,.07-.06,0-.15-.24-.49-1.17-1-2.37-1.46-3.6s-.94-2.46-1.39-3.69a1.11,1.11,0,0,0-.07-.13s-.06,0-.14,0l-3.3.23a.43.43,0,0,0-.23,0s0,.1,0,.24Zm-14.73,2.53c-.18.82-.33,1.67-.44,2.56s-.19,1.76-.24,2.61-.09,1.63-.11,2.32,0,1.23,0,1.64v.61l-1.3-5.63a.12.12,0,0,0,0-.09l-.1,0-3.32-.32-.12,0s-.06.06,0,.13c.26,1.08.53,2.18.81,3.28s.56,2.19.84,3.25.57,2.07.85,3,.56,1.83.82,2.62c0,0,0,.06,0,.07l.08,0,1.52,0c.5,0,1,.05,1.48.1a0,0,0,0,0,0,0,.12.12,0,0,0,0-.07l-.79-3v-.55c0-.36,0-.84,0-1.45s.06-1.29.11-2,.14-1.54.23-2.35.24-1.58.41-2.34a.12.12,0,0,1,0,0,0,0,0,0,1,0,.05c0,.15,0,.44,0,.88s0,.92,0,1.5a16.47,16.47,0,0,0,.16,1.71,6.11,6.11,0,0,0,.39,1.49.19.19,0,0,0,.08.07l.08,0,2.82-.13,2.32-10.63-.87.61c-.07.28-.18.65-.3,1.12s-.26,1-.41,1.52l-.44,1.59c-.14.51-.27,1-.38,1.32a5.72,5.72,0,0,1-.26.72l0,0s0,0,0,0a15.32,15.32,0,0,1-.5-2.18,18,18,0,0,1-.2-1.84c0-.53,0-1,0-1.29a3,3,0,0,0,0-.56.14.14,0,0,0-.1-.11l-.18-.05-2.8-.28a.2.2,0,0,0-.11,0S775.6,505.7,775.6,505.76Zm-11.32,15.41.28,0,.3,0h.2l.16,0a11.25,11.25,0,0,1,0,1.35,15,15,0,0,1-.09,1.6,15.51,15.51,0,0,1-.26,1.59,5.13,5.13,0,0,1-.48,1.31,1.72,1.72,0,0,1-.72.78,5,5,0,0,1-.73-1.78,11.14,11.14,0,0,1-.22-2.19,15.94,15.94,0,0,1,.14-2.22,17.19,17.19,0,0,1,.34-1.89,6,6,0,0,1,.38-1.18l0-.06h0l.41,2.6s0,0,0,.11S764.17,521.16,764.28,521.17Zm2.6-3.71a9.18,9.18,0,0,0-.53-1.47,6.53,6.53,0,0,0-.84-1.34.22.22,0,0,0-.09-.1l-.16,0-1.19-.26c-.38-.09-.78-.17-1.17-.24l-.08,0s0,.06,0,.12l.1,1c0,.1,0,.16,0,.16a.53.53,0,0,1-.19,0h-1.29l-.58.05-.15,0a.26.26,0,0,0-.07.11,7.92,7.92,0,0,0-1,2.12,14,14,0,0,0-.58,2.61,18.24,18.24,0,0,0-.15,2.76,15.26,15.26,0,0,0,.27,2.61,9.57,9.57,0,0,0,.66,2.15,3.5,3.5,0,0,0,1,1.36.32.32,0,0,0,.12.1.48.48,0,0,0,.22.05l3,.14a1.57,1.57,0,0,0,.91-.15,1.9,1.9,0,0,0,.7-.73,8.51,8.51,0,0,0,.75-1.59,16.25,16.25,0,0,0,.64-2.24,16.6,16.6,0,0,0,.32-2.63,13.62,13.62,0,0,0-.17-2.77l2.67-4.47-.81-.16Zm-14.88,7,.09,2.85s0,0,0,.06a.14.14,0,0,0,0,.1.14.14,0,0,0,.14,0h1c.13.83.26,1.74.37,2.71s.22,2,.29,3,.13,2,.14,2.86a23.5,23.5,0,0,1-.07,2.46,7.43,7.43,0,0,1-.32,1.75,7.34,7.34,0,0,1-.56-1.4c-.18-.6-.35-1.27-.51-2s-.3-1.53-.44-2.36-.25-1.63-.36-2.43-.18-1.54-.25-2.23-.1-1.29-.12-1.77c0-1.43-.07-2.84-.07-4.25s0-2.75,0-4,.07-2.42.13-3.43.13-1.84.2-2.48a.54.54,0,0,1,0-.11s0,0-.07,0l-3.6-.86a1.31,1.31,0,0,0-.27,0s-.09.08-.09.22c0,.51-.08,1.18-.09,2s0,1.74,0,2.77.06,2.14.11,3.3.11,2.34.17,3.54.15,2.38.23,3.53c0,.34.08.84.16,1.48s.19,1.4.31,2.23.28,1.71.46,2.61.36,1.78.56,2.63.43,1.63.66,2.32a7.63,7.63,0,0,0,.72,1.62c.25.4.51.6.77.6l2.37.59a.77.77,0,0,0,.4,0,1.39,1.39,0,0,0,.44-.22,3.15,3.15,0,0,0,1.06-1.89,13.64,13.64,0,0,0,.3-3.39,46.09,46.09,0,0,0-.34-4.71c-.22-1.77-.52-3.72-.89-5.82l.86-1.16,2.65-3.7-.77-.23-3.18,3.18-.07-.22a.16.16,0,0,0,0-.11.33.33,0,0,0-.12,0l-2.28-1a.08.08,0,0,0-.1,0,.2.2,0,0,0,0,.14Zm-10.31.57c-.37.74-.72,1.53-1,2.37s-.61,1.66-.87,2.48-.48,1.55-.66,2.21-.32,1.2-.42,1.6-.14.59-.14.59l.11-5.78s0-.07,0-.09l-.09-.06-3.14-1.12h-.13s-.07,0-.06.11c0,1.12,0,2.25,0,3.38s0,2.27,0,3.36,0,2.15.09,3.14.1,1.91.17,2.74c0,0,0,.06,0,.07l.07.06c.48.13,1,.26,1.46.41s1,.29,1.42.45a0,0,0,0,0,0,0,.09.09,0,0,0,0-.06l-.05-3.08s.05-.19.14-.54.21-.81.38-1.4.37-1.24.6-2,.5-1.46.79-2.22.62-1.48,1-2.17l.06,0a.18.18,0,0,1,0,.06c0,.14-.12.42-.23.84s-.23.9-.34,1.46a14,14,0,0,0-.26,1.7,6,6,0,0,0,0,1.54.24.24,0,0,0,.06.09l.07,0,2.77.55,4.83-9.74-1,.38-.56,1c-.23.43-.49.89-.76,1.38l-.81,1.44-.7,1.19a5.35,5.35,0,0,1-.42.63l0,0a.11.11,0,0,0,0-.05,16.44,16.44,0,0,1,0-2.24,15.77,15.77,0,0,1,.26-1.83c.1-.52.19-1,.27-1.26a4.41,4.41,0,0,0,.12-.55.16.16,0,0,0-.07-.13l-.17-.09-2.65-1-.11,0S741.71,525,741.69,525.07Zm-13.05,9.1a8.59,8.59,0,0,1-.62,2.42,6.77,6.77,0,0,1-1.17,1.87,4.33,4.33,0,0,1-1.51,1.12,10.75,10.75,0,0,1,.53-1.39,13.31,13.31,0,0,1,.78-1.49,11.78,11.78,0,0,1,.94-1.4A8.91,8.91,0,0,1,728.64,534.17Zm3.21-2.64a.59.59,0,0,0,0-.17s0-.07-.14-.1l-2.59-1-.1,0s0,0,0,.07l-.14,1.06a.19.19,0,0,1,0,.1s0,0-.11,0l-1.34-.89a.7.7,0,0,0-.19-.1s-.09,0-.17,0a6.07,6.07,0,0,0-1.55,1.24,13.34,13.34,0,0,0-1.48,1.94,19.8,19.8,0,0,0-1.27,2.37,18,18,0,0,0-.92,2.5,12.11,12.11,0,0,0-.43,2.38,5.3,5.3,0,0,0,.19,2,2.25,2.25,0,0,0,.95,1.27l1.92,1.2a.92.92,0,0,0,.53.14,1.26,1.26,0,0,0,.57-.14,7,7,0,0,0,2-1.28,19.19,19.19,0,0,0,2-2.14q1-1.23,2-2.64c.63-.93,1.21-1.87,1.75-2.79s1-1.81,1.41-2.63.72-1.52,1-2.11l-1,.28a19.16,19.16,0,0,1-1.21,2.3c-.49.82-1,1.63-1.61,2.45s-1.19,1.59-1.8,2.32-1.18,1.37-1.73,1.92a10.18,10.18,0,0,1-1.46,1.26,5,5,0,0,1-1.13.63c-.28.1-.47,0-.57-.17a2.58,2.58,0,0,1-.08-.83,9.19,9.19,0,0,1,.15-1.32l.67.24.13,0,.14,0a6.81,6.81,0,0,0,3-1.8,8.62,8.62,0,0,0,1.86-3.11A18.91,18.91,0,0,0,731.85,531.53Zm-19.79,8.62c.36-1.18.69-2.24,1-3.19s.63-1.85.92-2.7l.9-2.56c.31-.86.64-1.78,1-2.76a.09.09,0,0,0,0-.07s0,0,0-.08l-1-.6s0-.07.22-.12a5.05,5.05,0,0,1,.75-.17,8.4,8.4,0,0,1,1.08-.09,6.08,6.08,0,0,1,1.19.12,3.51,3.51,0,0,1,1.12.45,2.5,2.5,0,0,1,.82.91,4,4,0,0,1,.42,2.19,6.57,6.57,0,0,1-.69,2.34,11.82,11.82,0,0,1-1.47,2.24,15.76,15.76,0,0,1-2,1.94,12.61,12.61,0,0,1-2.18,1.44A6.93,6.93,0,0,1,712.06,540.15Zm.64-15a17.38,17.38,0,0,0-3.76,1.14,19.88,19.88,0,0,0-3.31,1.84,16.83,16.83,0,0,0-2.62,2.23c-.1.09-.13.15-.11.2a.5.5,0,0,0,.13.17l3,2.83.13.11.21.12a.21.21,0,0,0,.21-.07c.5-.6,1-1.21,1.64-1.81a20,20,0,0,1,1.89-1.69,12.25,12.25,0,0,1,2.07-1.29s.05,0,.05,0a.28.28,0,0,1,0,.05l-7.28,20a.36.36,0,0,0,0,.22.26.26,0,0,0,.12.11,2,2,0,0,1,.24.13l3.35,2.28a.11.11,0,0,0,.1,0s0,0,.07-.1c.14-.58.31-1.27.53-2.07s.45-1.65.71-2.56.52-1.82.8-2.75.53-1.79.78-2.61c0,0,0-.06,0-.06l.06,0,1.85,1.39a.48.48,0,0,0,.15.1h.16a9.07,9.07,0,0,0,2.7-.91,13.49,13.49,0,0,0,2.63-1.82,14.27,14.27,0,0,0,2.25-2.52,11.52,11.52,0,0,0,1.54-3,9.12,9.12,0,0,0,.51-3.28,6.07,6.07,0,0,0-.56-2.36,5.93,5.93,0,0,0-1.34-1.83,8.29,8.29,0,0,0-1.91-1.31,10.69,10.69,0,0,0-2.27-.79A12.33,12.33,0,0,0,715,525,11.9,11.9,0,0,0,712.7,525.17Zm-20.32,11.29a24.93,24.93,0,0,0-1.75,1.9c-.58.69-1.12,1.37-1.63,2.06s-1,1.31-1.35,1.88-.69,1-.91,1.37l-.33.52,2-5.43a.18.18,0,0,0,0-.09.24.24,0,0,0-.06-.09l-2.61-2.08a.25.25,0,0,0-.12,0s-.08,0-.1.09c-.36,1.05-.74,2.11-1.1,3.19s-.72,2.14-1.07,3.18-.65,2.05-.93,3-.53,1.84-.74,2.65a.08.08,0,0,0,0,.07.29.29,0,0,1,0,.08c.42.27.84.56,1.26.86s.81.59,1.19.89h.06l0,0,1-2.94s.11-.16.3-.46.47-.7.82-1.2.75-1.05,1.21-1.66.95-1.22,1.47-1.84,1.07-1.2,1.61-1.74c0,0,.06,0,.07,0a.05.05,0,0,1,0,0c-.09.12-.25.37-.49.73s-.51.77-.8,1.27a16.73,16.73,0,0,0-.8,1.51,6.84,6.84,0,0,0-.49,1.47.19.19,0,0,0,0,.1.22.22,0,0,0,.05.08l2.44,1.42,7.73-7.65-1.06,0-.86.77-1.17,1c-.43.38-.84.74-1.23,1.1l-1,.9a6.21,6.21,0,0,1-.61.46s0,0,0,0a.43.43,0,0,0,0,0,16,16,0,0,1,.77-2.1,16.8,16.8,0,0,1,.83-1.65c.27-.46.49-.83.68-1.1a2.84,2.84,0,0,0,.28-.48.16.16,0,0,0,0-.15l-.13-.14-2.19-1.76a.26.26,0,0,0-.1-.07S692.42,536.4,692.38,536.46Zm-17.58,9a2.71,2.71,0,0,1-.28.27s0,0,0-.18l1-2.14c.33-.69.65-1.34.93-1.94l.75-1.55c.21-.43.36-.76.46-1l.13-.23a.16.16,0,0,0,0-.15.83.83,0,0,0-.17-.18l-2.21-2.14a.9.9,0,0,0-.17-.16s-.06.06-.12.18c-.47,1-1,1.94-1.41,2.94s-.91,2-1.35,3-.83,1.92-1.21,2.82-.72,1.74-1,2.51a.64.64,0,0,0-.06.29.27.27,0,0,0,.1.18l.24.22,1.66,1.51a2.33,2.33,0,0,0,.25.22.1.1,0,0,0,.14,0l.24-.29,5.57-6c-.33.75-.64,1.49-1,2.23s-.6,1.48-.87,2.24c0,.11,0,.2,0,.24a1.73,1.73,0,0,0,.17.21l2,1.76c.08.07.12.12.15.11s.07,0,.14-.13l9.33-9.75-1.06-.08-6.45,6-.17.11s0,0,0-.09c.56-1.16,1.14-2.36,1.75-3.58s1.22-2.43,1.84-3.63a.44.44,0,0,0,.08-.15.25.25,0,0,0-.09-.15l-2.38-2.29a.44.44,0,0,0-.13-.14s-.07,0-.13.16l-2,4.3Z" transform="translate(-406.46 -195.54)"/>
    <path class="d" d="M823,454.07a9,9,0,0,1,1.38,2.09,6.72,6.72,0,0,1,.6,2.12,4.17,4.17,0,0,1-.18,1.86,11.49,11.49,0,0,1-.68-1.32,16,16,0,0,1-.59-1.57,12.37,12.37,0,0,1-.4-1.65,7.59,7.59,0,0,1-.13-1.53m.18-4.14a.6.6,0,0,0-.12-.14.21.21,0,0,0-.16,0l-2.52,1.23-.09.05s0,0,0,.08l.7.81.07.08s0,.05-.1.07l-1.57.4a.44.44,0,0,0-.19.07s-.06.07-.09.15a6.06,6.06,0,0,0-.11,2,14.14,14.14,0,0,0,.45,2.4,19.59,19.59,0,0,0,.91,2.52,18.84,18.84,0,0,0,1.25,2.36,11.44,11.44,0,0,0,1.47,1.91,5.15,5.15,0,0,0,1.59,1.17,2.29,2.29,0,0,0,1.58.15l2.17-.63a.92.92,0,0,0,.47-.29,1.38,1.38,0,0,0,.28-.52,7.26,7.26,0,0,0,.36-2.33,18.28,18.28,0,0,0-.23-2.94c-.16-1.05-.38-2.13-.65-3.22s-.58-2.15-.91-3.16-.67-2-1-2.81-.65-1.56-.93-2.12l-.48.95a21.8,21.8,0,0,1,.9,2.44c.28.91.52,1.85.74,2.84s.39,1.94.52,2.88.23,1.81.27,2.58a10.51,10.51,0,0,1,0,1.92,5.33,5.33,0,0,1-.28,1.26c-.12.28-.29.38-.52.31a2.25,2.25,0,0,1-.67-.49,8.54,8.54,0,0,1-.87-1l.62-.33a.38.38,0,0,0,.11-.08.54.54,0,0,0,.07-.12,6.86,6.86,0,0,0,.66-3.42,8.54,8.54,0,0,0-1.07-3.47A18.19,18.19,0,0,0,823.2,449.93Zm-4.74,10.37a.73.73,0,0,0-.11-.19s-.1,0-.2,0l-2.65.5a1,1,0,0,0-.28.08c-.05,0-.05.08,0,.18l1,1.64-1.92.05a1,1,0,0,0-.29,0q-.1,0-.15.21a7.08,7.08,0,0,0-.19,2.38,15.16,15.16,0,0,0,.49,2.9,19.24,19.24,0,0,0,1,3,14.14,14.14,0,0,0,1.44,2.56,6.39,6.39,0,0,0,1.69,1.71,2.33,2.33,0,0,0,1.81.39l2.21-.47a1,1,0,0,0,.49-.28,1.21,1.21,0,0,0,.31-.48,7.28,7.28,0,0,0,.53-2.3,18.44,18.44,0,0,0,0-3,31.8,31.8,0,0,0-.42-3.25c-.19-1.11-.42-2.19-.68-3.23s-.53-2-.81-2.87-.54-1.59-.79-2.17l-.55.92a18.75,18.75,0,0,1,.73,2.5q.33,1.38.54,2.88c.15,1,.26,2,.32,2.91s.1,1.82.09,2.59a10.55,10.55,0,0,1-.17,1.92,5,5,0,0,1-.38,1.24c-.13.26-.31.36-.53.27a2.66,2.66,0,0,1-.75-.68,10.33,10.33,0,0,1-.94-1.33,12.85,12.85,0,0,1-.9-1.82,11.69,11.69,0,0,1-.64-2.08,8.22,8.22,0,0,1-.14-2.15l.89,1.51c.05.11.12.16.2.14a1.37,1.37,0,0,0,.28-.1l1.5-.56.19-.09s0-.08,0-.17ZM810,481.62a.92.92,0,0,1,0,.15s0,0-.07-.06l-1.41-2.36q-.71-1.2-1.41-2.37a.29.29,0,0,0-.08-.1.19.19,0,0,0-.11,0l-3.23.74a.3.3,0,0,0-.11,0s0,.08,0,.16l1.78,2.85q.9,1.44,1.8,2.82c.59.92,1.17,1.8,1.72,2.62s1.1,1.57,1.6,2.24a.11.11,0,0,0,.06.06l.1,0,1.46-.41,1.44-.39s0,0,0,0,0,0,0-.05l-3.84-11c0-.07,0-.09,0-.07a1.18,1.18,0,0,0,.11.13c.71,1.13,1.42,2.25,2.15,3.33s1.49,2.17,2.28,3.23c.07.1.12.15.15.16a.62.62,0,0,0,.23-.06l2.7-.72.09,0s0,0,0-.08l-3.12-13.23-.64.85,1.51,8.85v.06s0,0,0,0c-.69-1.09-1.37-2.22-2-3.37s-1.35-2.31-2-3.5c-.07-.11-.14-.19-.18-.26a.2.2,0,0,0-.23,0l-1.62.38-1.6.36-.15,0s0,.05,0,.1Z" transform="translate(-406.46 -195.54)"/>
    <path class="g" d="M532.32,425.38a6.83,6.83,0,1,1-6.82,6.83,6.83,6.83,0,0,1,6.82-6.83" transform="translate(-406.46 -195.54)"/>
    <path class="g" d="M836.07,428.67a6.82,6.82,0,1,1-6.82,6.82,6.82,6.82,0,0,1,6.82-6.82" transform="translate(-406.46 -195.54)"/>
    <path class="a" d="M453.52,398.87l.69,1a41.44,41.44,0,0,0,7.37,9,112.41,112.41,0,0,1,8.72,9.61c3.43,4.15,3.3,7.82,5,13.84.77,2.72,1,5.17,1.67,7.93.78,3,.13,5,.48,8.37l.24,2.45c.34,3.27,3.06,5.68,3.48,9.85l.13.31-.09,6.18.31,3.06c.31,3.05,1.72,4.35,3.45,5.76a16.44,16.44,0,0,1,2.3,2c.88,1,1,2.14,1.77,3,2.91,3.15,5.13,7.32,7.58,11,3.29,5,13.53,16.58,14.21,23.19.73,7.28-6.52,18-5.5,28.08a19.15,19.15,0,0,0,.52,2.11c-.81,1.54-3.1,2.17-5.65,2.4l-1.69,1.28-7.71.32c-.73-.39-1.2-1.11-2-1l-1.53.15c-2.12.22-2.8,1.52-3.55,1.6l-.92.09c-.68.07-.69-.17-1.28-.26l-4.32.26-.95-.57c-3.67.38-4.44-.6-6.68-1.79-3.85.39-4.79.94-7.53-.41-3.71-1.83-.37-2.19-7-1.44L448.79,541c-3.46.35-1.81-1.13-2.92-4.42l-2.75,0-1.81-2.27c-2.61,2.16-7.62,8.55-10.82,9.14l.15,1.53-2,.86-.55,1.57-.91.09c-.23,1.76-.21,3.73-2.38,4l-.31,0c-3,.31-6.56-.17-8.48,1.22-2.22,1.61-3.28,2.76-7.16,3.15a2.35,2.35,0,0,1-2.4-1.15l4.63-4.33c4.63-.47,6.3-5.77,10.09-7.21l0-.86,3.95-3.25c.35-.59,4.18-4.38,5.11-5.38,1.63-1.76,2.76-4.07,4.46-6.18,2.16-2.68,10.85-7.53,9.8-10.81,2.18-1.81,4.69-5.24,6.58-7.55,1.16-1.42,2.11-2.57,2.32-4.56.25-2.3,1.48-2.5,2.37-4.81a11.81,11.81,0,0,1,3-4c1-.93,1.63-3.45,2.35-4.82,1.56-3,5.29-5.16,4.88-9.21l-.1-.92c-.54-5.35-3.94-5.21-6.58-8.11-3.48-3.82-.47-6.33-9.1-5.54l-9.45,9.71c1.36,1.65,8.6,7.47,10.63,7.27,1.13-.12,2.6-7.79,5.19-8.22l-.53,2.43,3.63-.93c0,2.3-2.72,1-2.66,4.29l.92-.09c.2,2.6-2.33,6.11-4.92,6.37l-.61.06c-2.95.3-19.78-6-20-7.86-.23-2.28,8.76-13.07,10.56-14.68,2.26-2,3.12-5.36,6.07-6.85,2-1,6.75-4,6.49-6.49l-.12-1.22c-.23-2.28-1.05-1.87-1.57-3.24l-.91.09c-.07.47,0,.93-.52,1-3,.3-4.21,0-5.45-1.92-.79-1.2-2.57-3.92-2.74-5.6,0-.19.6-.95.8-1.31a85.2,85.2,0,0,1-2.49-9.73c-.75-3.26,3.08-5.13,4.86-6.41l4-.28c2.39,3.59,9.14,4.8,9.92,10.25l3.08,3.3,1.23,3.44-2.72,1.94.21,2.14c.12,1.11.48,1,.83,2.08,1.23,0,.77.23,1.56.15,1.49-.15,2-3.41,2.43-4.76.23-.8,1.84-5,1.81-5.26-.41-4.07-2.17-10.36-3.91-13.1a5.76,5.76,0,0,0-1.14-1.66c-1.48-1.1-2.66-2.37-5.41-6.63-2-3.16-3.54-6.34-6.57-9.34-1.39,0-1.4,0-2.32-.85s-1.17-1.53-2.18-2.06c-.26-.14-.57-.07-.9-.19s-.93-.27-1.5-.49c-1-.41-1-.73-.8-1.77a3.87,3.87,0,0,0,1.32.44l.92-.09a15.18,15.18,0,0,1,2.17.09l-.09-.92-.12-1.23c-.9-1-2.25-1.53-4-2.47-.33-.18-.66-.47-.57-.84a20.68,20.68,0,0,1,4.52.78,8.67,8.67,0,0,1,1.72.67,14.63,14.63,0,0,1,2.65,1.73" transform="translate(-406.46 -195.54)"/>
    <path class="a" d="M914.48,398.87l-.69,1a41.15,41.15,0,0,1-7.37,9,112.41,112.41,0,0,0-8.72,9.61c-3.43,4.15-3.29,7.82-5,13.84-.77,2.72-1,5.17-1.67,7.93-.78,3-.13,5-.47,8.37l-.25,2.45c-.33,3.27-3,5.68-3.48,9.85l-.13.31.09,6.18-.31,3.06c-.31,3.05-1.72,4.35-3.44,5.76a16,16,0,0,0-2.31,2c-.87,1-1,2.14-1.77,3-2.91,3.15-5.13,7.32-7.58,11-3.29,5-13.53,16.58-14.2,23.19-.74,7.28,6.51,18,5.49,28.08a15.5,15.5,0,0,1-.52,2.11c.82,1.54,3.1,2.17,5.65,2.4l1.69,1.28,7.71.32c.74-.39,1.2-1.11,2-1l1.53.15c2.12.22,2.8,1.52,3.55,1.6l.92.09c.69.07.7-.17,1.28-.26l4.32.26,1-.57c3.68.38,4.44-.6,6.68-1.79,3.86.39,4.79.94,7.53-.41,3.71-1.83.38-2.19,7-1.44l6.32-5.31c3.46.35,1.82-1.13,2.92-4.42l2.75,0,1.81-2.27c2.61,2.16,7.63,8.55,10.83,9.14l-.16,1.53,2,.86.54,1.57.92.09c.22,1.76.2,3.73,2.38,4l.3,0c3,.31,6.56-.17,8.49,1.22,2.21,1.61,3.28,2.76,7.15,3.15a2.35,2.35,0,0,0,2.4-1.15l-4.63-4.33c-4.62-.47-6.3-5.77-10.09-7.21l0-.86-4-3.25c-.35-.59-4.18-4.38-5.11-5.38-1.63-1.76-2.76-4.07-4.46-6.18-2.16-2.68-10.85-7.53-9.8-10.81-2.18-1.81-4.69-5.24-6.58-7.55-1.16-1.42-2.11-2.57-2.32-4.56-.25-2.3-1.48-2.5-2.37-4.81a11.68,11.68,0,0,0-3-4c-1-.93-1.63-3.45-2.34-4.82-1.57-3-5.3-5.16-4.89-9.21l.1-.92c.54-5.35,3.94-5.21,6.58-8.11,3.48-3.82.47-6.33,9.1-5.54l9.46,9.71c-1.37,1.65-8.6,7.47-10.64,7.27-1.12-.12-2.6-7.79-5.18-8.22l.52,2.43-3.62-.93c0,2.3,2.71,1,2.65,4.29l-.91-.09c-.21,2.6,2.32,6.11,4.91,6.37l.62.06c2.94.3,19.77-6,20-7.86.23-2.28-8.76-13.07-10.57-14.68-2.26-2-3.12-5.36-6.06-6.85-2-1-6.76-4-6.5-6.49l.12-1.22c.23-2.28,1-1.87,1.57-3.24l.92.09c.06.47,0,.93.52,1,3,.3,4.2,0,5.44-1.92.79-1.2,2.57-3.92,2.74-5.6,0-.19-.6-.95-.79-1.31a87.37,87.37,0,0,0,2.48-9.73c.75-3.26-3.08-5.13-4.86-6.41l-4-.28c-2.4,3.59-9.15,4.8-9.93,10.25l-3.08,3.3-1.23,3.44,2.73,1.94-.22,2.14c-.11,1.11-.47,1-.83,2.08-1.23,0-.77.23-1.56.15-1.48-.15-2-3.41-2.43-4.76-.23-.8-1.84-5-1.81-5.26.41-4.07,2.17-10.36,3.91-13.1a5.76,5.76,0,0,1,1.14-1.66c1.48-1.1,2.66-2.37,5.41-6.63,2-3.16,3.55-6.34,6.58-9.34,1.38,0,1.39,0,2.31-.85s1.18-1.53,2.19-2.06c.25-.14.56-.07.89-.19s.94-.27,1.5-.49c1-.41,1-.73.8-1.77a3.79,3.79,0,0,1-1.32.44l-.92-.09a15.18,15.18,0,0,0-2.17.09l.09-.92.13-1.23c.89-1,2.24-1.53,4-2.47.33-.18.66-.47.58-.84a20.77,20.77,0,0,0-4.53.78,8.93,8.93,0,0,0-1.72.67,14.63,14.63,0,0,0-2.65,1.73" transform="translate(-406.46 -195.54)"/>
  </g>
</svg>
